<?xml version="1.0" encoding="UTF-8" standalone="no"?>
<!DOCTYPE svg PUBLIC "-//W3C//DTD SVG 1.1//EN"
 "http://www.w3.org/Graphics/SVG/1.1/DTD/svg11.dtd">
<!-- Generated by graphviz version 2.43.0 (0)
 -->
<!-- Title: dag Pages: 1 -->
<svg width="764pt" height="565pt"
 viewBox="0.00 0.00 763.53 565.20" xmlns="http://www.w3.org/2000/svg" xmlns:xlink="http://www.w3.org/1999/xlink">
<g id="graph0" class="graph" transform="scale(1 1) rotate(0) translate(4 561.2)">
<title>dag</title>
<polygon fill="white" stroke="transparent" points="-4,4 -4,-561.2 759.53,-561.2 759.53,4 -4,4"/>
<!-- v0 -->
<g id="node1" class="node">
<title>v0</title>
<ellipse fill="none" stroke="black" cx="100.74" cy="-538.6" rx="100.98" ry="18"/>
<text text-anchor="middle" x="100.74" y="-534.9" font-family="Times,serif" font-size="14.00">DOWNLOAD_HOST</text>
</g>
<!-- v1 -->
<g id="node2" class="node">
<title>v1</title>
<ellipse fill="black" stroke="black" cx="100.74" cy="-451.6" rx="1.8" ry="1.8"/>
</g>
<!-- v0&#45;&gt;v1 -->
<g id="edge1" class="edge">
<title>v0&#45;&gt;v1</title>
<path fill="none" stroke="black" d="M100.74,-520.4C100.74,-503.52 100.74,-478.26 100.74,-463.82"/>
<polygon fill="black" stroke="black" points="104.24,-463.68 100.74,-453.68 97.24,-463.68 104.24,-463.68"/>
</g>
<!-- v2 -->
<g id="node3" class="node">
<title>v2</title>
<ellipse fill="none" stroke="black" cx="344.74" cy="-538.6" rx="124.58" ry="18"/>
<text text-anchor="middle" x="344.74" y="-534.9" font-family="Times,serif" font-size="14.00">DOWNLOAD_DATABASE</text>
</g>
<!-- v17 -->
<g id="node4" class="node">
<title>v17</title>
<ellipse fill="black" stroke="black" cx="169.74" cy="-451.6" rx="1.8" ry="1.8"/>
</g>
<!-- v2&#45;&gt;v17 -->
<g id="edge2" class="edge">
<title>v2&#45;&gt;v17</title>
<path fill="none" stroke="black" d="M278.47,-523.3C260.48,-518.09 241.38,-511.28 224.74,-502.6 204,-491.78 200.37,-486.05 183.74,-469.6 181.27,-467.15 178.78,-464.3 176.61,-461.63"/>
<polygon fill="black" stroke="black" points="179.3,-459.39 170.44,-453.58 173.74,-463.65 179.3,-459.39"/>
</g>
<!-- v16 -->
<g id="node5" class="node">
<title>v16</title>
<ellipse fill="black" stroke="black" cx="194.74" cy="-451.6" rx="1.8" ry="1.8"/>
</g>
<!-- v2&#45;&gt;v16 -->
<g id="edge3" class="edge">
<title>v2&#45;&gt;v16</title>
<path fill="none" stroke="black" d="M294.18,-522.03C279.74,-516.72 264.26,-510.18 250.74,-502.6 230.04,-490.99 225.72,-486.19 208.74,-469.6 206.25,-467.17 203.76,-464.32 201.59,-461.65"/>
<polygon fill="black" stroke="black" points="204.28,-459.41 195.43,-453.58 198.72,-463.66 204.28,-459.41"/>
</g>
<!-- v15 -->
<g id="node6" class="node">
<title>v15</title>
<ellipse fill="black" stroke="black" cx="219.74" cy="-451.6" rx="1.8" ry="1.8"/>
</g>
<!-- v2&#45;&gt;v15 -->
<g id="edge4" class="edge">
<title>v2&#45;&gt;v15</title>
<path fill="none" stroke="black" d="M308.32,-521.23C297.26,-515.77 285.26,-509.35 274.74,-502.6 255.06,-489.96 250.37,-486.05 233.74,-469.6 231.27,-467.15 228.78,-464.3 226.61,-461.63"/>
<polygon fill="black" stroke="black" points="229.3,-459.39 220.44,-453.58 223.74,-463.65 229.3,-459.39"/>
</g>
<!-- v14 -->
<g id="node7" class="node">
<title>v14</title>
<ellipse fill="black" stroke="black" cx="244.74" cy="-451.6" rx="1.8" ry="1.8"/>
</g>
<!-- v2&#45;&gt;v14 -->
<g id="edge5" class="edge">
<title>v2&#45;&gt;v14</title>
<path fill="none" stroke="black" d="M320.37,-520.95C302.34,-508.03 277.73,-489.1 258.74,-469.6 256.31,-467.11 253.84,-464.24 251.67,-461.58"/>
<polygon fill="black" stroke="black" points="254.35,-459.32 245.45,-453.57 248.82,-463.61 254.35,-459.32"/>
</g>
<!-- v13 -->
<g id="node8" class="node">
<title>v13</title>
<ellipse fill="black" stroke="black" cx="269.74" cy="-451.6" rx="1.8" ry="1.8"/>
</g>
<!-- v2&#45;&gt;v13 -->
<g id="edge6" class="edge">
<title>v2&#45;&gt;v13</title>
<path fill="none" stroke="black" d="M329.25,-520.73C316.8,-507.08 298.94,-487.28 283.74,-469.6 281.47,-466.96 279.05,-464.05 276.87,-461.39"/>
<polygon fill="black" stroke="black" points="279.5,-459.09 270.49,-453.53 274.07,-463.5 279.5,-459.09"/>
</g>
<!-- v12 -->
<g id="node9" class="node">
<title>v12</title>
<ellipse fill="black" stroke="black" cx="294.74" cy="-451.6" rx="1.8" ry="1.8"/>
</g>
<!-- v2&#45;&gt;v12 -->
<g id="edge7" class="edge">
<title>v2&#45;&gt;v12</title>
<path fill="none" stroke="black" d="M334.62,-520.4C324.31,-502.87 308.69,-476.31 300.39,-462.2"/>
<polygon fill="black" stroke="black" points="303.27,-460.2 295.19,-453.36 297.24,-463.75 303.27,-460.2"/>
</g>
<!-- v11 -->
<g id="node10" class="node">
<title>v11</title>
<ellipse fill="black" stroke="black" cx="319.74" cy="-451.6" rx="1.8" ry="1.8"/>
</g>
<!-- v2&#45;&gt;v11 -->
<g id="edge8" class="edge">
<title>v2&#45;&gt;v11</title>
<path fill="none" stroke="black" d="M339.68,-520.4C334.67,-503.34 327.13,-477.74 322.91,-463.37"/>
<polygon fill="black" stroke="black" points="326.24,-462.29 320.06,-453.68 319.52,-464.26 326.24,-462.29"/>
</g>
<!-- v10 -->
<g id="node11" class="node">
<title>v10</title>
<ellipse fill="black" stroke="black" cx="344.74" cy="-451.6" rx="1.8" ry="1.8"/>
</g>
<!-- v2&#45;&gt;v10 -->
<g id="edge9" class="edge">
<title>v2&#45;&gt;v10</title>
<path fill="none" stroke="black" d="M344.74,-520.4C344.74,-503.52 344.74,-478.26 344.74,-463.82"/>
<polygon fill="black" stroke="black" points="348.24,-463.68 344.74,-453.68 341.24,-463.68 348.24,-463.68"/>
</g>
<!-- v9 -->
<g id="node12" class="node">
<title>v9</title>
<ellipse fill="black" stroke="black" cx="369.74" cy="-451.6" rx="1.8" ry="1.8"/>
</g>
<!-- v2&#45;&gt;v9 -->
<g id="edge10" class="edge">
<title>v2&#45;&gt;v9</title>
<path fill="none" stroke="black" d="M350.22,-520.54C352.02,-514.85 354,-508.46 355.74,-502.6 359.69,-489.29 363.96,-473.9 366.73,-463.75"/>
<polygon fill="black" stroke="black" points="370.17,-464.41 369.41,-453.84 363.42,-462.58 370.17,-464.41"/>
</g>
<!-- v8 -->
<g id="node13" class="node">
<title>v8</title>
<ellipse fill="black" stroke="black" cx="394.74" cy="-451.6" rx="1.8" ry="1.8"/>
</g>
<!-- v2&#45;&gt;v8 -->
<g id="edge11" class="edge">
<title>v2&#45;&gt;v8</title>
<path fill="none" stroke="black" d="M359.01,-520.71C363.37,-515.13 368.01,-508.77 371.74,-502.6 379.53,-489.72 386.44,-473.77 390.61,-463.39"/>
<polygon fill="black" stroke="black" points="393.94,-464.48 394.27,-453.89 387.41,-461.96 393.94,-464.48"/>
</g>
<!-- v7 -->
<g id="node14" class="node">
<title>v7</title>
<ellipse fill="black" stroke="black" cx="419.74" cy="-451.6" rx="1.8" ry="1.8"/>
</g>
<!-- v2&#45;&gt;v7 -->
<g id="edge12" class="edge">
<title>v2&#45;&gt;v7</title>
<path fill="none" stroke="black" d="M369.51,-520.95C376.52,-515.57 383.83,-509.27 389.74,-502.6 400.69,-490.24 409.87,-473.33 415.08,-462.69"/>
<polygon fill="black" stroke="black" points="418.37,-463.92 419.41,-453.37 412.02,-460.97 418.37,-463.92"/>
</g>
<!-- v6 -->
<g id="node15" class="node">
<title>v6</title>
<ellipse fill="black" stroke="black" cx="444.74" cy="-451.6" rx="1.8" ry="1.8"/>
</g>
<!-- v2&#45;&gt;v6 -->
<g id="edge13" class="edge">
<title>v2&#45;&gt;v6</title>
<path fill="none" stroke="black" d="M382.11,-521.31C391.7,-516.13 401.6,-509.84 409.74,-502.6 422.94,-490.86 433.8,-473.2 439.76,-462.31"/>
<polygon fill="black" stroke="black" points="442.88,-463.9 444.36,-453.41 436.66,-460.68 442.88,-463.9"/>
</g>
<!-- v5 -->
<g id="node16" class="node">
<title>v5</title>
<ellipse fill="black" stroke="black" cx="469.74" cy="-451.6" rx="1.8" ry="1.8"/>
</g>
<!-- v2&#45;&gt;v5 -->
<g id="edge14" class="edge">
<title>v2&#45;&gt;v5</title>
<path fill="none" stroke="black" d="M395.31,-522.12C407.59,-517.03 420.2,-510.57 430.74,-502.6 445.54,-491.41 457.76,-473.28 464.38,-462.2"/>
<polygon fill="black" stroke="black" points="467.46,-463.86 469.31,-453.43 461.36,-460.43 467.46,-463.86"/>
</g>
<!-- v4 -->
<g id="node17" class="node">
<title>v4</title>
<ellipse fill="black" stroke="black" cx="494.74" cy="-451.6" rx="1.8" ry="1.8"/>
</g>
<!-- v2&#45;&gt;v4 -->
<g id="edge15" class="edge">
<title>v2&#45;&gt;v4</title>
<path fill="none" stroke="black" d="M409.12,-523.16C424.18,-518.09 439.64,-511.38 452.74,-502.6 468.62,-491.96 481.8,-473.66 488.95,-462.39"/>
<polygon fill="black" stroke="black" points="492.16,-463.83 494.28,-453.45 486.15,-460.25 492.16,-463.83"/>
</g>
<!-- v3 -->
<g id="node18" class="node">
<title>v3</title>
<ellipse fill="black" stroke="black" cx="519.74" cy="-451.6" rx="1.8" ry="1.8"/>
</g>
<!-- v2&#45;&gt;v3 -->
<g id="edge16" class="edge">
<title>v2&#45;&gt;v3</title>
<path fill="none" stroke="black" d="M422.89,-524.51C441.07,-519.4 459.76,-512.33 475.74,-502.6 492.57,-492.35 506.49,-473.6 513.91,-462.2"/>
<polygon fill="black" stroke="black" points="517.02,-463.82 519.26,-453.47 511.05,-460.17 517.02,-463.82"/>
</g>
<!-- v18 -->
<g id="node19" class="node">
<title>v18</title>
<ellipse fill="black" stroke="black" cx="580.74" cy="-538.6" rx="3.6" ry="3.6"/>
<text text-anchor="middle" x="640.64" y="-546" font-family="Times,serif" font-size="14.00">Channel.fromSRA</text>
</g>
<!-- v19 -->
<g id="node20" class="node">
<title>v19</title>
<ellipse fill="none" stroke="black" cx="580.74" cy="-451.6" rx="40.89" ry="18"/>
<text text-anchor="middle" x="580.74" y="-447.9" font-family="Times,serif" font-size="14.00">FASTP</text>
</g>
<!-- v18&#45;&gt;v19 -->
<g id="edge17" class="edge">
<title>v18&#45;&gt;v19</title>
<path fill="none" stroke="black" d="M580.74,-534.77C580.74,-526.28 580.74,-500.35 580.74,-479.87"/>
<polygon fill="black" stroke="black" points="584.24,-479.77 580.74,-469.77 577.24,-479.77 584.24,-479.77"/>
<text text-anchor="middle" x="612.74" y="-491.4" font-family="Times,serif" font-size="14.00">ch_reads</text>
</g>
<!-- v21 -->
<g id="node21" class="node">
<title>v21</title>
<ellipse fill="none" stroke="black" cx="505.74" cy="-364.6" rx="48.99" ry="18"/>
<text text-anchor="middle" x="505.74" y="-360.9" font-family="Times,serif" font-size="14.00">FASTQC</text>
</g>
<!-- v19&#45;&gt;v21 -->
<g id="edge18" class="edge">
<title>v19&#45;&gt;v21</title>
<path fill="none" stroke="black" d="M549.2,-439.85C537.39,-434.33 524.87,-426.44 516.74,-415.6 511.85,-409.07 509.05,-400.8 507.47,-392.87"/>
<polygon fill="black" stroke="black" points="510.91,-392.22 506.03,-382.82 503.99,-393.22 510.91,-392.22"/>
<text text-anchor="middle" x="546.74" y="-404.4" font-family="Times,serif" font-size="14.00">ch_fastp</text>
</g>
<!-- v20 -->
<g id="node22" class="node">
<title>v20</title>
<ellipse fill="black" stroke="black" cx="580.74" cy="-364.6" rx="1.8" ry="1.8"/>
</g>
<!-- v19&#45;&gt;v20 -->
<g id="edge19" class="edge">
<title>v19&#45;&gt;v20</title>
<path fill="none" stroke="black" d="M580.74,-433.4C580.74,-416.52 580.74,-391.26 580.74,-376.82"/>
<polygon fill="black" stroke="black" points="584.24,-376.68 580.74,-366.68 577.24,-376.68 584.24,-376.68"/>
</g>
<!-- v23 -->
<g id="node24" class="node">
<title>v23</title>
<ellipse fill="none" stroke="black" cx="656.74" cy="-364.6" rx="55.79" ry="18"/>
<text text-anchor="middle" x="656.74" y="-360.9" font-family="Times,serif" font-size="14.00">BOWTIE2</text>
</g>
<!-- v19&#45;&gt;v23 -->
<g id="edge21" class="edge">
<title>v19&#45;&gt;v23</title>
<path fill="none" stroke="black" d="M595.04,-434.61C606.36,-421.95 622.35,-404.07 635.21,-389.68"/>
<polygon fill="black" stroke="black" points="637.94,-391.88 641.99,-382.1 632.72,-387.22 637.94,-391.88"/>
<text text-anchor="middle" x="652.74" y="-404.4" font-family="Times,serif" font-size="14.00">ch_fastp</text>
</g>
<!-- v22 -->
<g id="node23" class="node">
<title>v22</title>
<ellipse fill="black" stroke="black" cx="505.74" cy="-277.6" rx="1.8" ry="1.8"/>
</g>
<!-- v21&#45;&gt;v22 -->
<g id="edge20" class="edge">
<title>v21&#45;&gt;v22</title>
<path fill="none" stroke="black" d="M505.74,-346.4C505.74,-329.52 505.74,-304.26 505.74,-289.82"/>
<polygon fill="black" stroke="black" points="509.24,-289.68 505.74,-279.68 502.24,-289.68 509.24,-289.68"/>
</g>
<!-- v24 -->
<g id="node25" class="node">
<title>v24</title>
<ellipse fill="none" stroke="black" cx="656.74" cy="-277.6" rx="57.69" ry="18"/>
<text text-anchor="middle" x="656.74" y="-273.9" font-family="Times,serif" font-size="14.00">KRAKEN2</text>
</g>
<!-- v23&#45;&gt;v24 -->
<g id="edge22" class="edge">
<title>v23&#45;&gt;v24</title>
<path fill="none" stroke="black" d="M656.74,-346.4C656.74,-334.76 656.74,-319.15 656.74,-305.84"/>
<polygon fill="black" stroke="black" points="660.24,-305.78 656.74,-295.78 653.24,-305.78 660.24,-305.78"/>
<text text-anchor="middle" x="697.24" y="-317.4" font-family="Times,serif" font-size="14.00">ch_bowtie2</text>
</g>
<!-- v25 -->
<g id="node26" class="node">
<title>v25</title>
<ellipse fill="none" stroke="black" cx="656.74" cy="-204.6" rx="59.29" ry="18"/>
<text text-anchor="middle" x="656.74" y="-200.9" font-family="Times,serif" font-size="14.00">BRACKEN</text>
</g>
<!-- v24&#45;&gt;v25 -->
<g id="edge23" class="edge">
<title>v24&#45;&gt;v25</title>
<path fill="none" stroke="black" d="M656.74,-259.41C656.74,-251.39 656.74,-241.65 656.74,-232.67"/>
<polygon fill="black" stroke="black" points="660.24,-232.63 656.74,-222.63 653.24,-232.63 660.24,-232.63"/>
</g>
<!-- v26 -->
<g id="node27" class="node">
<title>v26</title>
<ellipse fill="none" stroke="black" cx="656.74" cy="-131.6" rx="98.58" ry="18"/>
<text text-anchor="middle" x="656.74" y="-127.9" font-family="Times,serif" font-size="14.00">KREPORT2KRONA</text>
</g>
<!-- v25&#45;&gt;v26 -->
<g id="edge24" class="edge">
<title>v25&#45;&gt;v26</title>
<path fill="none" stroke="black" d="M656.74,-186.41C656.74,-178.39 656.74,-168.65 656.74,-159.67"/>
<polygon fill="black" stroke="black" points="660.24,-159.63 656.74,-149.63 653.24,-159.63 660.24,-159.63"/>
</g>
<!-- v27 -->
<g id="node28" class="node">
<title>v27</title>
<ellipse fill="none" stroke="black" cx="656.74" cy="-58.6" rx="46.29" ry="18"/>
<text text-anchor="middle" x="656.74" y="-54.9" font-family="Times,serif" font-size="14.00">KRONA</text>
</g>
<!-- v26&#45;&gt;v27 -->
<g id="edge25" class="edge">
<title>v26&#45;&gt;v27</title>
<path fill="none" stroke="black" d="M656.74,-113.41C656.74,-105.39 656.74,-95.65 656.74,-86.67"/>
<polygon fill="black" stroke="black" points="660.24,-86.63 656.74,-76.63 653.24,-86.63 660.24,-86.63"/>
</g>
<!-- v28 -->
<g id="node29" class="node">
<title>v28</title>
<ellipse fill="black" stroke="black" cx="656.74" cy="-1.8" rx="1.8" ry="1.8"/>
</g>
<!-- v27&#45;&gt;v28 -->
<g id="edge26" class="edge">
<title>v27&#45;&gt;v28</title>
<path fill="none" stroke="black" d="M656.74,-40.56C656.74,-31.87 656.74,-21.56 656.74,-13.9"/>
<polygon fill="black" stroke="black" points="660.24,-13.76 656.74,-3.76 653.24,-13.76 660.24,-13.76"/>
</g>
</g>
</svg>
